<?xml version="1.0" standalone="no"?>
<!DOCTYPE svg PUBLIC "-//W3C//DTD SVG 20010904//EN"
 "http://www.w3.org/TR/2001/REC-SVG-20010904/DTD/svg10.dtd">
<svg version="1.0" xmlns="http://www.w3.org/2000/svg"
 width="512.000000pt" height="512.000000pt" viewBox="0 0 512.000000 512.000000"
 preserveAspectRatio="xMidYMid meet">
<metadata>
Created by potrace 1.16, written by Peter Selinger 2001-2019
</metadata>
<g transform="translate(0.000000,512.000000) scale(0.100000,-0.100000)"
fill="#000000" stroke="none">
<path d="M200 5110 c1 -8 7 -44 15 -80 27 -122 21 -187 -30 -314 -62 -158 -78
-231 -73 -347 l4 -97 -56 91 c-35 58 -56 85 -58 74 -2 -10 24 -62 57 -116 34
-54 90 -158 125 -232 35 -74 93 -183 130 -243 131 -215 203 -525 207 -891 1
-139 13 -174 24 -70 20 202 -24 472 -135 820 -120 376 -124 517 -25 733 48
102 154 261 228 340 34 37 83 96 109 132 44 63 118 190 118 203 0 4 -24 7 -53
7 l-53 0 -49 -97 c-60 -119 -134 -218 -263 -356 -139 -147 -176 -215 -192
-355 -7 -66 -2 -146 14 -227 5 -26 3 -24 -14 11 -71 149 -67 403 11 614 29 78
31 92 26 175 -3 54 -14 116 -27 155 -23 66 -40 97 -40 70z m165 -642 c-18 -40
-40 -102 -50 -138 -31 -122 -34 -130 -29 -65 8 87 39 184 74 233 18 23 33 42
35 42 2 0 -11 -33 -30 -72z"/>
<path d="M490 5115 c0 -5 5 -17 10 -25 5 -8 10 -10 10 -5 0 6 -5 17 -10 25 -5
8 -10 11 -10 5z"/>
<path d="M607 5078 c-9 -24 -29 -80 -46 -125 -17 -46 -28 -83 -26 -83 13 0
145 224 145 245 0 3 -13 5 -29 5 -25 0 -31 -6 -44 -42z"/>
<path d="M1880 5114 c0 -3 38 -64 84 -135 146 -225 243 -435 321 -699 40 -132
62 -178 50 -100 -10 61 -186 589 -236 708 -23 53 -57 127 -78 164 l-36 68 -52
0 c-29 0 -53 -3 -53 -6z"/>
<path d="M2475 5048 c-52 -110 -66 -177 -63 -293 2 -91 0 -103 -21 -131 -35
-48 -40 -92 -40 -349 -1 -132 -5 -253 -10 -270 l-9 -30 -1 35 c-1 41 -47 234
-61 259 -14 24 -13 15 16 -94 20 -78 27 -134 31 -255 6 -176 -6 -263 -59 -410
-17 -47 -31 -94 -31 -105 -3 -96 -554 -680 -822 -870 -22 -16 -1 9 48 54 103
98 196 206 336 391 209 276 321 574 337 899 9 159 -20 343 -68 446 -10 22 -16
31 -12 20 57 -191 59 -203 59 -410 0 -213 -10 -286 -61 -443 -56 -170 -178
-374 -329 -551 -83 -97 -160 -164 -380 -331 -256 -194 -365 -293 -365 -334 0
-30 23 -27 82 9 33 21 107 64 164 95 124 70 204 129 434 321 310 259 471 426
577 599 48 78 63 120 41 120 -8 0 -19 -5 -26 -12 -17 -17 -15 -7 12 54 34 77
98 286 91 297 -3 5 0 13 6 16 6 4 8 23 4 49 -5 32 -4 38 5 26 9 -12 10 -5 6
28 -4 24 -3 49 1 55 4 7 8 144 9 305 2 277 9 351 33 352 3 0 15 7 26 16 17 13
21 31 26 127 7 127 28 203 87 307 20 36 39 68 40 73 2 4 -15 7 -38 7 l-41 0
-34 -72z"/>
<path d="M2776 5048 c-66 -82 -153 -226 -190 -314 -27 -66 -66 -199 -65 -224
0 -8 11 23 25 69 50 170 127 317 241 462 35 43 59 79 54 79 -4 0 -34 -32 -65
-72z"/>
<path d="M2959 4992 c-148 -152 -230 -265 -310 -425 -86 -172 -162 -436 -158
-551 1 -17 7 9 15 59 30 190 76 332 165 506 74 144 168 269 311 412 70 70 121
127 114 127 -8 0 -69 -58 -137 -128z"/>
<path d="M3935 5094 c-107 -91 -407 -251 -627 -334 -146 -56 -247 -111 -293
-161 l-30 -33 34 28 c19 15 56 38 82 52 53 26 149 66 149 60 0 -1 -41 -27 -92
-57 -158 -94 -291 -235 -370 -394 -45 -89 -68 -161 -117 -365 -62 -254 -121
-360 -338 -601 -103 -116 -373 -385 -518 -518 l-80 -74 79 64 c259 209 539
474 660 625 84 105 162 240 196 339 11 32 31 112 45 179 32 152 57 230 108
331 80 161 176 273 307 359 78 51 318 174 424 216 41 16 162 54 269 84 107 31
239 72 293 91 120 43 324 128 319 133 -2 2 -73 -23 -157 -56 -160 -63 -357
-129 -468 -157 -36 -9 -74 -18 -85 -21 -11 -3 30 22 90 56 118 67 275 166 275
175 0 3 -28 5 -62 5 -53 -1 -68 -5 -93 -26z"/>
<path d="M4788 5063 c-94 -84 -184 -138 -336 -203 -127 -53 -674 -250 -738
-266 -45 -11 -50 -17 -21 -25 15 -4 54 -1 89 7 87 20 411 125 554 179 65 24
119 43 121 42 1 -2 -41 -39 -94 -83 -54 -43 -181 -160 -283 -259 -293 -284
-307 -296 -626 -490 -248 -151 -309 -199 -440 -341 -313 -341 -410 -422 -884
-739 -546 -366 -528 -352 -663 -503 -28 -32 -62 -47 -37 -17 19 23 4 18 -74
-21 -124 -63 -308 -203 -391 -297 -71 -80 -135 -234 -135 -325 0 -16 -16 -81
-35 -143 -48 -156 -65 -260 -65 -403 0 -148 18 -234 67 -335 44 -90 150 -201
231 -242 l52 -27 -43 -27 c-85 -56 -168 -128 -214 -186 l-46 -60 -29 28 c-37
36 -118 203 -156 323 -17 52 -49 169 -71 258 -58 231 -56 316 14 612 l6 25
-11 -25 c-19 -43 -49 -181 -59 -274 -20 -175 25 -486 100 -690 l30 -79 -42 38
c-61 55 -239 234 -276 278 -30 36 -33 45 -33 107 0 73 32 199 74 291 13 30 40
90 60 134 l36 80 -58 -61 c-32 -33 -70 -85 -84 -116 -32 -68 -75 -206 -84
-270 l-6 -46 -49 64 c-57 74 -58 84 -24 211 52 195 118 310 287 499 53 60 108
123 122 139 14 17 -8 -20 -48 -82 -40 -62 -94 -152 -119 -200 -100 -196 -188
-462 -186 -562 1 -42 2 -39 14 29 28 163 93 343 187 520 48 90 124 210 133
210 2 0 -7 -19 -20 -43 -30 -53 -57 -117 -50 -117 3 0 32 40 64 90 32 49 61
87 65 83 4 -4 4 0 0 10 -4 11 0 19 10 23 9 3 13 10 10 15 -3 5 -1 9 4 9 4 0
32 43 61 96 29 53 93 161 142 240 49 79 89 150 89 157 0 18 52 91 104 146 22
24 133 125 246 226 370 329 505 486 620 720 114 231 166 420 158 570 -9 168
-91 270 -333 415 -77 46 -212 132 -300 190 -300 199 -434 257 -571 248 -55 -4
-89 -13 -136 -36 -97 -48 -113 -66 -33 -36 92 34 207 42 295 20 95 -23 229
-95 470 -252 118 -78 242 -155 275 -174 241 -133 335 -281 305 -484 -17 -119
-84 -313 -156 -456 -111 -219 -247 -380 -554 -660 -224 -204 -303 -285 -386
-390 -32 -41 -88 -107 -125 -145 -64 -69 -150 -179 -171 -220 -16 -30 4 -7 55
65 25 36 65 85 87 110 29 32 15 5 -51 -95 -76 -114 -123 -171 -254 -305 -89
-92 -182 -196 -208 -232 -64 -90 -131 -235 -158 -342 l-22 -89 -16 29 c-12 24
-16 26 -19 11 -2 -10 3 -33 12 -52 9 -18 16 -41 15 -52 0 -10 -6 -1 -12 21
-10 32 -12 3 -13 -180 -1 -239 5 -245 43 -44 8 47 21 109 27 139 l11 53 36
-53 c20 -30 41 -63 47 -74 19 -40 23 -109 8 -160 -44 -149 -65 -412 -47 -592
13 -124 17 -143 36 -143 9 0 9 14 -2 68 -33 167 -26 455 15 632 l17 75 23 -62
c13 -34 27 -65 32 -68 13 -8 33 62 27 98 l-4 32 40 -48 c30 -35 49 -74 73
-145 17 -53 64 -166 103 -251 40 -85 84 -194 99 -243 26 -86 27 -88 58 -88 31
0 32 1 39 55 3 30 10 53 15 50 4 -3 13 -27 20 -55 l12 -50 59 0 59 0 -20 50
c-11 28 -29 69 -40 90 -24 47 -25 62 -5 101 l16 30 72 -59 c86 -70 292 -218
282 -203 -3 6 -66 56 -138 110 -73 54 -149 114 -170 132 l-38 34 50 61 c49 61
139 138 217 187 l41 25 82 -43 c103 -56 182 -116 263 -203 34 -37 54 -56 43
-42 -41 53 -142 153 -189 188 -28 20 -81 53 -118 72 l-68 36 137 67 c172 82
319 140 547 211 97 31 180 56 183 56 3 0 -1 -7 -8 -17 -13 -15 -7 -16 71 -10
194 14 387 102 545 246 130 120 230 247 376 478 49 77 108 162 131 187 67 77
37 62 -62 -31 l-94 -88 45 64 c24 35 66 88 92 117 26 29 49 57 50 61 0 4 76
78 167 164 444 419 588 575 795 864 213 298 255 352 429 554 70 81 368 412
441 489 7 8 -3 -42 -21 -110 -49 -181 -49 -189 1 -38 25 74 61 198 81 275 19
77 46 175 60 217 14 43 24 88 22 100 -5 29 -66 -157 -98 -295 -26 -115 -27
-117 -246 -351 -266 -285 -304 -328 -493 -555 -352 -425 -431 -516 -560 -651
l-130 -135 64 127 c37 75 82 187 109 275 116 365 144 444 193 543 90 180 145
254 263 353 58 49 168 137 245 195 77 59 162 127 188 151 45 42 47 46 28 53
-38 14 -25 50 52 146 120 149 387 553 387 585 0 23 -18 4 -119 -120 -160 -199
-324 -377 -770 -833 -364 -372 -459 -481 -504 -580 -34 -75 -57 -180 -61 -280
-3 -52 -3 -79 0 -60 16 130 54 258 100 339 54 93 244 311 317 363 22 16 16 1
-37 -79 -123 -189 -181 -317 -255 -568 -87 -292 -124 -394 -193 -535 -68 -137
-76 -150 -164 -237 -51 -50 -127 -117 -168 -148 -42 -31 -119 -98 -173 -149
-54 -50 -174 -155 -268 -231 -202 -166 -401 -361 -550 -540 -59 -71 -118 -140
-131 -151 -56 -53 -372 -59 -517 -10 -163 55 -310 149 -366 233 -17 25 -40 71
-52 102 -29 76 -29 209 0 301 25 79 21 89 -8 18 -112 -281 -28 -499 243 -632
178 -88 356 -111 570 -72 49 8 91 14 94 12 7 -8 -19 -46 -41 -61 -45 -29 -426
-52 -562 -33 l-50 7 55 -15 c30 -7 111 -17 179 -21 l123 -6 -163 -57 c-186
-65 -234 -84 -422 -174 l-135 -63 -58 31 c-76 40 -170 135 -211 211 -56 106
-77 201 -77 355 0 146 17 254 60 387 69 213 171 347 474 622 69 63 178 168
242 235 65 66 120 117 124 113 4 -4 -1 -17 -12 -30 -27 -30 -74 -101 -74 -111
0 -5 12 0 27 10 17 10 2 -12 -37 -55 -124 -139 -268 -340 -329 -460 -45 -88
-20 -65 91 82 290 385 491 584 916 904 144 109 226 181 114 100 -29 -20 -52
-35 -52 -33 0 8 139 118 285 228 178 133 260 203 415 357 153 151 209 197 420
341 91 62 212 150 270 195 58 44 121 92 140 105 19 13 43 33 53 44 10 12 15
14 11 6 -4 -9 -3 -12 2 -7 5 5 9 12 9 16 0 12 363 358 506 481 75 65 156 128
180 140 37 19 25 4 -81 -97 -196 -187 -276 -259 -405 -366 -128 -106 -183
-156 -100 -92 103 80 224 183 339 290 247 228 315 284 446 373 74 50 153 104
176 121 23 17 44 28 48 24 3 -3 6 -1 6 5 0 19 -74 14 -101 -6 -13 -10 -42 -31
-64 -47 l-40 -29 45 47 c39 41 41 47 22 47 -12 0 -49 -25 -84 -57z m-476
-1140 c-11 -16 -31 -48 -45 -73 -14 -25 -40 -61 -57 -80 l-31 -35 21 40 c23
45 117 175 125 175 3 0 -3 -12 -13 -27z m-3002 -1636 c-27 -24 -135 -112 -155
-127 -11 -8 -2 5 20 29 22 24 62 58 90 77 51 35 70 44 45 21z m1910 -237 c-65
-59 -117 -99 -106 -82 10 17 145 132 154 132 4 0 -18 -23 -48 -50z m-281 -342
c-85 -122 -247 -326 -314 -397 -116 -121 -218 -186 -371 -236 -42 -14 -78 -25
-81 -25 -11 0 15 25 80 77 40 32 149 132 242 223 94 91 193 184 220 207 57 47
238 183 243 183 2 0 -7 -15 -19 -32z m-439 -548 c-95 -81 -281 -183 -372 -204
l-27 -6 20 35 c16 26 31 37 62 45 75 19 221 81 282 120 73 46 81 49 35 10z
m-2251 -410 c-1 -48 -3 -58 -9 -40 -12 38 -12 139 0 120 5 -8 9 -44 9 -80z
m421 -345 c14 -19 14 -19 -2 -6 -10 7 -18 18 -18 24 0 6 1 8 3 6 1 -2 9 -13
17 -24z m83 -147 c-10 -22 -11 -20 -37 29 -35 69 -33 75 11 31 32 -32 35 -40
26 -60z"/>
<path d="M4986 5065 c-9 -26 -7 -32 5 -12 6 10 9 21 6 23 -2 3 -7 -2 -11 -11z"/>
<path d="M4931 4942 c-128 -259 -347 -585 -591 -878 -35 -43 -59 -74 -52 -70
25 15 188 212 278 336 51 69 130 186 177 260 85 136 243 427 235 435 -2 2 -23
-35 -47 -83z"/>
<path d="M5055 4549 c-32 -39 -103 -121 -157 -183 -91 -102 -93 -104 -19 -28
91 94 251 282 239 282 -2 0 -30 -32 -63 -71z"/>
<path d="M1970 4570 c6 -11 13 -20 16 -20 2 0 0 9 -6 20 -6 11 -13 20 -16 20
-2 0 0 -9 6 -20z"/>
<path d="M2014 4493 c13 -27 34 -76 46 -111 13 -34 25 -60 28 -57 10 9 -79
215 -93 215 -3 0 5 -21 19 -47z"/>
<path d="M2512 4470 c0 -14 2 -19 5 -12 2 6 2 18 0 25 -3 6 -5 1 -5 -13z"/>
<path d="M2421 4464 c0 -11 3 -14 6 -6 3 7 2 16 -1 19 -3 4 -6 -2 -5 -13z"/>
<path d="M2412 4400 c0 -19 2 -27 5 -17 2 9 2 25 0 35 -3 9 -5 1 -5 -18z"/>
<path d="M3417 4365 c-91 -32 -198 -85 -277 -137 -71 -47 -204 -169 -253 -233
-24 -31 -15 -25 39 26 117 111 287 213 482 290 85 34 122 54 122 69 0 16 -40
10 -113 -15z"/>
<path d="M2395 4265 c-4 -53 -5 -98 -3 -101 3 -2 8 39 12 92 4 53 5 98 3 101
-3 2 -8 -39 -12 -92z"/>
<path d="M3577 4276 c-103 -45 -256 -133 -353 -202 -151 -107 -262 -232 -434
-489 -100 -148 -362 -411 -592 -594 -93 -73 -168 -135 -168 -137 0 -5 257 185
365 269 102 79 272 243 335 321 26 34 84 121 128 194 175 288 268 369 619 539
156 75 193 97 193 113 0 26 -1 26 -93 -14z"/>
<path d="M3919 4243 c-13 -16 -12 -17 4 -4 16 13 21 21 13 21 -2 0 -10 -8 -17
-17z"/>
<path d="M1 4208 c-1 -10 47 -88 105 -175 120 -178 149 -232 192 -353 42 -117
74 -187 79 -173 2 7 -2 49 -11 93 -24 129 -77 224 -276 498 -36 50 -70 98 -77
108 -11 17 -12 17 -12 2z"/>
<path d="M2483 3895 c0 -44 2 -61 4 -37 2 23 2 59 0 80 -2 20 -4 1 -4 -43z"/>
<path d="M2843 3938 c-15 -20 -25 -38 -20 -38 3 0 12 11 21 25 17 26 16 35 -1
13z"/>
<path d="M18 3795 c23 -34 90 -101 95 -94 2 2 -24 31 -56 64 -33 33 -51 47
-39 30z"/>
<path d="M1532 3770 c0 -19 2 -27 5 -17 2 9 2 25 0 35 -3 9 -5 1 -5 -18z"/>
<path d="M2481 3757 c-2 -45 -39 -182 -66 -243 -23 -51 -48 -93 -112 -183 -25
-35 -25 -35 12 4 49 53 108 156 133 230 26 77 45 177 39 201 -3 13 -5 10 -6
-9z"/>
<path d="M1522 3670 c0 -14 2 -19 5 -12 2 6 2 18 0 25 -3 6 -5 1 -5 -13z"/>
<path d="M4873 3612 c-12 -26 -57 -85 -100 -131 -43 -47 -68 -79 -56 -73 36
20 132 133 160 189 14 30 24 56 22 58 -3 2 -14 -17 -26 -43z"/>
<path d="M1512 3610 c0 -14 2 -19 5 -12 2 6 2 18 0 25 -3 6 -5 1 -5 -13z"/>
<path d="M1501 3564 c0 -11 3 -14 6 -6 3 7 2 16 -1 19 -3 4 -6 -2 -5 -13z"/>
<path d="M1491 3514 c0 -11 3 -14 6 -6 3 7 2 16 -1 19 -3 4 -6 -2 -5 -13z"/>
<path d="M166 3468 c184 -204 182 -558 -6 -1158 -157 -501 -160 -515 -159
-682 l0 -133 28 135 c34 160 65 268 177 613 132 409 160 569 151 856 -3 100
-12 188 -21 221 l-15 55 5 -70 c3 -38 1 -99 -4 -135 -5 -36 -10 -51 -11 -33
-4 119 -74 297 -136 352 -56 49 -62 36 -9 -21z"/>
<path d="M5000 3450 c-6 -11 -8 -20 -6 -20 3 0 10 9 16 20 6 11 8 20 6 20 -3
0 -10 -9 -16 -20z"/>
<path d="M4970 3400 c-6 -11 -8 -20 -6 -20 3 0 10 9 16 20 6 11 8 20 6 20 -3
0 -10 -9 -16 -20z"/>
<path d="M5080 3370 c-18 -23 -30 -43 -27 -46 7 -7 67 58 67 74 0 19 -6 15
-40 -28z"/>
<path d="M5021 3338 c-95 -498 -216 -776 -497 -1138 -129 -166 -293 -326 -497
-483 -97 -76 -217 -177 -265 -225 -54 -53 -61 -61 -18 -21 98 91 163 144 291
235 156 110 247 186 345 285 181 181 350 416 456 634 100 204 145 357 184 624
21 148 22 200 1 89z"/>
<path d="M4870 3208 c-71 -148 -146 -335 -137 -345 2 -2 21 43 42 99 20 57 70
172 110 256 41 83 71 152 69 152 -3 0 -41 -73 -84 -162z"/>
<path d="M1421 3299 c-6 -18 -9 -34 -7 -36 2 -2 9 10 15 28 6 18 9 34 7 36 -2
2 -9 -10 -15 -28z"/>
<path d="M72 3140 c-3 -160 -18 -275 -48 -370 -34 -110 -26 -133 17 -45 l34
70 3 180 c2 99 2 203 0 230 -3 28 -5 -2 -6 -65z"/>
<path d="M1348 3137 c-79 -155 -157 -270 -343 -502 -151 -190 -464 -605 -486
-646 -18 -34 -2 -20 26 23 42 63 327 435 475 619 72 90 163 211 201 268 65 97
195 338 187 346 -2 2 -29 -47 -60 -108z"/>
<path d="M4406 3155 c3 -16 12 -59 20 -95 18 -85 17 -267 -1 -355 -34 -158
-103 -319 -202 -470 -61 -92 -269 -370 -344 -460 -24 -27 10 2 75 65 65 63
146 149 180 190 138 164 266 399 313 576 46 175 33 404 -31 544 -16 34 -16 34
-10 5z"/>
<path d="M4751 3164 c0 -11 3 -14 6 -6 3 7 2 16 -1 19 -3 4 -6 -2 -5 -13z"/>
<path d="M4717 3033 c-14 -59 -29 -124 -32 -143 -31 -160 -148 -426 -265 -605
-55 -82 -56 -86 -19 -45 132 145 252 393 304 628 20 91 46 264 41 269 -2 2
-15 -44 -29 -104z"/>
<path d="M5071 3055 c-54 -112 -72 -155 -67 -155 2 0 30 34 61 75 52 70 56 78
53 122 l-3 48 -44 -90z"/>
<path d="M4656 3004 c-4 -14 -5 -28 -3 -31 3 -2 8 8 11 23 4 14 5 28 3 31 -3
2 -8 -8 -11 -23z"/>
<path d="M1999 2833 c-13 -16 -12 -17 4 -4 9 7 17 15 17 17 0 8 -8 3 -21 -13z"/>
<path d="M1959 2803 c-13 -16 -12 -17 4 -4 9 7 17 15 17 17 0 8 -8 3 -21 -13z"/>
<path d="M1709 2683 c-13 -16 -12 -17 4 -4 16 13 21 21 13 21 -2 0 -10 -8 -17
-17z"/>
<path d="M586 2630 c16 -104 16 -171 0 -251 -24 -117 -84 -294 -161 -471 -36
-82 -65 -154 -65 -160 0 -23 200 381 224 453 46 137 50 302 11 419 -13 39 -14
40 -9 10z"/>
<path d="M5066 2258 c-56 -140 -161 -355 -235 -481 -129 -217 -352 -465 -541
-600 -52 -37 -158 -99 -235 -137 -205 -103 -294 -122 -805 -175 -135 -14 -301
-35 -370 -46 -216 -34 -435 -96 -455 -129 -13 -22 2 -20 83 10 44 16 125 40
179 54 127 32 390 78 411 73 11 -3 8 -5 -8 -6 -62 -3 -326 -64 -437 -100 -209
-69 -531 -215 -690 -312 -166 -101 -307 -238 -381 -369 l-23 -40 54 0 c52 0
55 2 82 40 88 126 316 300 568 430 387 201 695 296 1351 415 104 19 191 34
192 32 2 -1 -41 -35 -94 -74 -207 -153 -338 -290 -403 -420 -36 -70 -42 -91
-43 -152 -1 -66 -3 -72 -33 -98 -19 -17 -36 -45 -42 -68 -16 -61 -12 -66 8
-10 12 34 28 57 51 72 32 22 33 25 34 96 1 63 6 84 38 149 42 83 135 192 227
262 86 66 174 118 448 261 265 140 383 212 498 303 223 179 304 293 483 682
134 294 143 319 140 396 l-3 65 -49 -123z m-1708 -1405 c-10 -2 -28 -2 -40 0
-13 2 -5 4 17 4 22 1 32 -1 23 -4z m-105 -10 c-7 -2 -21 -2 -30 0 -10 3 -4 5
12 5 17 0 24 -2 18 -5z m-90 -10 c-7 -2 -21 -2 -30 0 -10 3 -4 5 12 5 17 0 24
-2 18 -5z"/>
<path d="M3265 2002 c-69 -50 -131 -102 -122 -102 10 0 149 104 166 124 19 22
13 20 -44 -22z"/>
<path d="M1115 1890 c-37 -61 -135 -262 -135 -277 0 -4 28 48 63 117 34 69 75
146 91 173 15 26 26 47 23 47 -3 0 -22 -27 -42 -60z"/>
<path d="M966 1585 c-9 -26 -7 -32 5 -12 6 10 9 21 6 23 -2 3 -7 -2 -11 -11z"/>
<path d="M946 1535 c-9 -26 -7 -32 5 -12 6 10 9 21 6 23 -2 3 -7 -2 -11 -11z"/>
<path d="M434 1374 c-66 -149 -72 -316 -18 -500 9 -30 17 -54 19 -52 2 2 -6
37 -17 78 -16 56 -21 106 -22 200 -1 131 8 180 50 278 13 28 21 52 18 52 -3 0
-16 -25 -30 -56z"/>
<path d="M778 1345 c-3 -11 -9 -47 -12 -80 l-5 -60 15 55 c14 55 16 129 2 85z"/>
<path d="M5021 1134 c-222 -65 -558 -226 -891 -426 -154 -93 -180 -111 -180
-125 0 -28 46 -7 272 128 279 165 593 310 809 373 76 21 84 26 87 50 4 31 8
31 -97 0z"/>
<path d="M4975 1026 c-27 -12 -122 -68 -210 -123 -304 -190 -545 -320 -850
-458 -281 -127 -351 -170 -456 -281 -55 -58 -116 -150 -106 -160 2 -3 19 19
37 47 47 77 135 160 215 201 39 20 144 69 235 108 338 148 674 334 1061 585
156 102 182 130 74 81z"/>
<path d="M140 809 c-8 -17 -35 -64 -60 -103 -78 -117 -80 -124 -80 -233 l1
-98 29 113 c17 62 53 165 81 228 28 64 49 117 46 120 -2 3 -10 -10 -17 -27z"/>
<path d="M4745 748 c-187 -165 -240 -200 -630 -423 -217 -123 -356 -213 -433
-279 l-54 -46 46 0 c39 0 60 10 165 78 66 42 185 117 264 165 164 101 367 247
477 341 89 77 257 235 250 235 -3 0 -41 -32 -85 -71z"/>
<path d="M5091 478 c-29 -131 -45 -168 -69 -168 -21 0 -341 -135 -357 -151 -5
-5 63 20 150 55 88 35 173 67 188 70 l28 7 -17 -33 c-9 -18 -32 -57 -52 -86
-51 -78 -91 -94 -297 -121 -265 -34 -308 -52 -60 -26 173 18 177 18 140 -3
l-30 -17 37 -3 c20 -2 51 4 67 13 17 8 42 20 57 25 37 14 20 -8 -20 -26 -30
-13 -29 -13 40 -14 57 0 87 6 145 30 41 16 75 30 77 30 1 0 2 11 2 25 0 14 -2
25 -4 25 -3 0 -40 -16 -82 -35 -42 -19 -79 -34 -80 -32 -12 12 38 53 97 79 68
30 69 31 69 70 l0 39 -30 -16 c-43 -22 -43 -20 -5 31 l35 46 0 144 c0 79 -1
144 -3 144 -2 0 -13 -46 -26 -102z"/>
<path d="M1530 226 c0 -2 8 -10 18 -17 15 -13 16 -12 3 4 -13 16 -21 21 -21
13z"/>
<path d="M2471 164 c-29 -15 -83 -56 -119 -92 -57 -55 -64 -66 -47 -69 15 -3
42 18 95 70 41 40 89 83 105 95 40 29 30 27 -34 -4z"/>
<path d="M442 85 c0 -5 6 -26 13 -45 7 -19 14 -28 14 -20 0 8 -6 29 -14 45 -7
17 -13 26 -13 20z"/>
<path d="M2785 32 c-63 -21 -74 -27 -53 -30 23 -3 173 41 187 54 14 13 -66 -1
-134 -24z"/>
</g>
</svg>